<?xml version="1.0" encoding="UTF-8"?>
<svg  viewBox="0 0 22 22" version="1.1" xmlns="http://www.w3.org/2000/svg" xmlns:xlink="http://www.w3.org/1999/xlink">
    <g id="bag-icon"  stroke-width="1">
            <path d="M18,19 C18,19.552 17.552,20 17,20 L5,20 C4.448,20 4,19.552 4,19 L4,3 C4,2.448 4.448,2 5,2 L17,2 C17.552,2 18,2.448 18,3 L18,19 Z M17,1 L5,1 C3.896,1 3,1.896 3,3 L3,19 C3,20.104 3.896,21 5,21 L17,21 C18.104,21 19,20.104 19,19 L19,3 C19,1.896 18.104,1 17,1 Z" id="Fill-3" ></path>
            <path d="M15.375,16 L6.625,16 C6.28,16 6,16.224 6,16.5 C6,16.776 6.28,17 6.625,17 L15.375,17 C15.72,17 16,16.776 16,16.5 C16,16.224 15.72,16 15.375,16" id="Fill-5" ></path>
            <path d="M16,5 C15.724,5 15.5,5.224 15.5,5.5 C15.5,7.897 13.397,10 11,10 C8.519,10 6.5,7.981 6.5,5.5 C6.5,5.224 6.276,5 6,5 C5.724,5 5.5,5.224 5.5,5.5 C5.5,8.532 7.968,11 11,11 C13.981,11 16.5,8.481 16.5,5.5 C16.5,5.224 16.276,5 16,5" id="Fill-7" ></path>
    </g>
</svg>