<?xml version="1.0" encoding="UTF-8"?>
<svg  viewBox="0 0 22 22" version="1.1" xmlns="http://www.w3.org/2000/svg" xmlns:xlink="http://www.w3.org/1999/xlink">
    <g id="person-icon"  stroke-width="1">
            <path d="M19,20 C18.724,20 18.5,19.776 18.5,19.5 C18.5,17.09 17.329,14.812 15.368,13.403 C15.145,13.242 15.093,12.93 15.254,12.705 C15.415,12.48 15.727,12.43 15.952,12.591 C18.174,14.187 19.5,16.769 19.5,19.5 C19.5,19.776 19.276,20 19,20" id="Fill-3"></path>
            <path d="M11,11 C8.794,11 7,9.205 7,7 C7,4.794 8.794,3 11,3 C13.206,3 15,4.794 15,7 C15,9.205 13.206,11 11,11 M11,2 C8.238,2 6,4.238 6,7 C6,8.882 7.052,10.501 8.588,11.354 C5.073,12.397 2.5,15.652 2.5,19.5 C2.5,19.776 2.724,20 3,20 C3.276,20 3.5,19.776 3.5,19.5 C3.5,15.364 6.864,12 11,12 C13.762,12 16,9.762 16,7 C16,4.238 13.762,2 11,2" id="Fill-5" ></path>
    </g>
</svg>