<?xml version="1.0" encoding="UTF-8"?>
<svg width="22px" height="22px" viewBox="0 0 22 22" version="1.1" xmlns="http://www.w3.org/2000/svg" xmlns:xlink="http://www.w3.org/1999/xlink">
    <!-- Generator: Sketch 51.2 (57519) - http://www.bohemiancoding.com/sketch -->
    <title>icon_tab bar_personal_off_22px@2x</title>
    <desc>Created with Sketch.</desc>
    <defs></defs>
    <g id="得乐商城-(移动端)" stroke="none" stroke-width="1" fill="none" fill-rule="evenodd">
        <g id="得乐商城" transform="translate(-302.000000, -624.000000)">
            <rect id="background" fill="#FFFFFF" x="0" y="0" width="375" height="667"></rect>
            <g id="tab-bar" transform="translate(0.000000, 617.000000)">
                <rect id="tab-background" fill="#FFFFFF" fill-rule="evenodd" x="0" y="1" width="375" height="49"></rect>
                <g id="tab-bar-块/今日/on" transform="translate(0.000000, 1.000000)">
                    <rect id="tab-background" fill="#FFFFFF" fill-rule="evenodd" x="0" y="0" width="125" height="49"></rect>
                    <g id="icon/tab-bar/主页（当前）22px" transform="translate(52.000000, 6.000000)" fill-rule="evenodd" stroke-width="1">
                        <g id="Page-1">
                            <polygon id="Fill-1" fill="#FFFFFF" opacity="0" points="0 22 22 22 22 0 0 0"></polygon>
                            <path d="M19.1777,8.2373 L11.8837,2.3133 C11.3717,1.8953 10.6277,1.8953 10.1157,2.3133 L2.8227,8.2373 C2.2997,8.6623 1.9997,9.2953 1.9997,9.9733 L1.9997,17.7743 C1.9997,19.0023 2.9877,20.0003 4.1997,20.0003 L9.2997,20.0003 C9.5757,20.0003 9.7997,19.7763 9.7997,19.5003 C9.7997,19.2233 9.5757,19.0003 9.2997,19.0003 L4.1997,19.0003 C3.5377,19.0003 2.9997,18.4503 2.9997,17.7743 L2.9997,9.9733 C2.9997,9.5973 3.1647,9.2473 3.4527,9.0123 L10.7467,3.0893 C10.8937,2.9693 11.1067,2.9693 11.2527,3.0893 L18.5467,9.0123 C18.8347,9.2473 18.9997,9.5973 18.9997,9.9733 L18.9997,17.7743 C18.9997,18.4503 18.4617,19.0003 17.7997,19.0003 L12.6997,19.0003 C12.0377,19.0003 11.4997,18.4503 11.4997,17.7743 L11.4997,16.0483 C11.4997,15.7713 11.2767,15.5483 10.9997,15.5483 C10.7237,15.5483 10.4997,15.7713 10.4997,16.0483 L10.4997,17.7743 C10.4997,19.0023 11.4877,20.0003 12.6997,20.0003 L17.7997,20.0003 C19.0127,20.0003 19.9997,19.0023 19.9997,17.7743 L19.9997,9.9733 C19.9997,9.2953 19.6997,8.6623 19.1777,8.2373" id="Fill-3" fill="#191919"></path>
                            <path d="M11,14 C11.276,14 11.5,13.776 11.5,13.5 L11.5,12.5 C11.5,12.224 11.276,12 11,12 C10.724,12 10.5,12.224 10.5,12.5 L10.5,13.5 C10.5,13.776 10.724,14 11,14" id="Fill-5" fill="#191919"></path>
                        </g>
                    </g>
                    <text id="今日" font-family="PingFangSC-Regular, PingFang SC" font-size="12" font-weight="normal" fill="#191919">
                        <tspan x="51" y="41">今日</tspan>
                    </text>
                </g>
                <g id="tab-bar-块/购物袋/off" transform="translate(125.000000, 1.000000)">
                    <rect id="tab-background" fill="#FFFFFF" fill-rule="evenodd" x="0" y="0" width="125" height="49"></rect>
                    <g id="icon/tab-bar/购物袋（静默）22px" transform="translate(52.000000, 6.000000)" fill-rule="evenodd" stroke-width="1">
                        <g id="Page-1">
                            <polygon id="Fill-1" fill="#FFFFFF" opacity="0" points="0 22 22 22 22 0 0 0"></polygon>
                            <path d="M18,19 C18,19.552 17.552,20 17,20 L5,20 C4.448,20 4,19.552 4,19 L4,3 C4,2.448 4.448,2 5,2 L17,2 C17.552,2 18,2.448 18,3 L18,19 Z M17,1 L5,1 C3.896,1 3,1.896 3,3 L3,19 C3,20.104 3.896,21 5,21 L17,21 C18.104,21 19,20.104 19,19 L19,3 C19,1.896 18.104,1 17,1 Z" id="Fill-3" fill="#CCCCCC"></path>
                            <path d="M15.375,16 L6.625,16 C6.28,16 6,16.224 6,16.5 C6,16.776 6.28,17 6.625,17 L15.375,17 C15.72,17 16,16.776 16,16.5 C16,16.224 15.72,16 15.375,16" id="Fill-5" fill="#CCCCCC"></path>
                            <path d="M16,5 C15.724,5 15.5,5.224 15.5,5.5 C15.5,7.897 13.397,10 11,10 C8.519,10 6.5,7.981 6.5,5.5 C6.5,5.224 6.276,5 6,5 C5.724,5 5.5,5.224 5.5,5.5 C5.5,8.532 7.968,11 11,11 C13.981,11 16.5,8.481 16.5,5.5 C16.5,5.224 16.276,5 16,5" id="Fill-7" fill="#CCCCCC"></path>
                        </g>
                    </g>
                    <text id="购物袋" font-family="PingFangSC-Regular, PingFang SC" font-size="12" font-weight="normal" fill="#CCCCCC">
                        <tspan x="45" y="41">购物袋</tspan>
                    </text>
                </g>
                <g id="tab-bar-块/我的得乐/off" transform="translate(250.000000, 1.000000)">
                    <rect id="tab-background" fill="#FFFFFF" fill-rule="evenodd" x="0" y="0" width="125" height="49"></rect>
                    <g id="icon/tab-bar/个人中心（当前）22px" transform="translate(52.000000, 6.000000)" fill-rule="evenodd" stroke-width="1">
                        <g id="Page-1">
                            <polygon id="Fill-1" fill="#FFFFFF" opacity="0" points="0 22 22 22 22 0 0 0"></polygon>
                            <path d="M19,20 C18.724,20 18.5,19.776 18.5,19.5 C18.5,17.09 17.329,14.812 15.368,13.403 C15.145,13.242 15.093,12.93 15.254,12.705 C15.415,12.48 15.727,12.43 15.952,12.591 C18.174,14.187 19.5,16.769 19.5,19.5 C19.5,19.776 19.276,20 19,20" id="Fill-3" fill="#CCCCCC"></path>
                            <path d="M11,11 C8.794,11 7,9.205 7,7 C7,4.794 8.794,3 11,3 C13.206,3 15,4.794 15,7 C15,9.205 13.206,11 11,11 M11,2 C8.238,2 6,4.238 6,7 C6,8.882 7.052,10.501 8.588,11.354 C5.073,12.397 2.5,15.652 2.5,19.5 C2.5,19.776 2.724,20 3,20 C3.276,20 3.5,19.776 3.5,19.5 C3.5,15.364 6.864,12 11,12 C13.762,12 16,9.762 16,7 C16,4.238 13.762,2 11,2" id="Fill-5" fill="#CCCCCC"></path>
                        </g>
                    </g>
                    <text id="我的得乐" font-family="PingFangSC-Regular, PingFang SC" font-size="12" font-weight="normal" fill="#CCCCCC">
                        <tspan x="39" y="41">我的得乐</tspan>
                    </text>
                </g>
                <rect id="line" fill="#F2F2F2" fill-rule="evenodd" x="0" y="0" width="375" height="1"></rect>
            </g>
            <g id="tab-bar" transform="translate(0.000000, 617.000000)">
                <rect id="tab-background" fill="#FFFFFF" x="0" y="1" width="375" height="49"></rect>
                <g id="tab-bar-块/我的得乐/off" transform="translate(250.000000, 1.000000)">
                    <rect id="tab-background" fill="#FFFFFF" fill-rule="evenodd" x="0" y="0" width="125" height="49"></rect>
                    <g id="icon/tab-bar/个人中心（当前）22px" transform="translate(52.000000, 6.000000)" fill-rule="evenodd" stroke-width="1">
                        <g id="Page-1">
                            <polygon id="Fill-1" fill="#FFFFFF" opacity="0" points="0 22 22 22 22 0 0 0"></polygon>
                            <path d="M19,20 C18.724,20 18.5,19.776 18.5,19.5 C18.5,17.09 17.329,14.812 15.368,13.403 C15.145,13.242 15.093,12.93 15.254,12.705 C15.415,12.48 15.727,12.43 15.952,12.591 C18.174,14.187 19.5,16.769 19.5,19.5 C19.5,19.776 19.276,20 19,20" id="Fill-3" fill="#CCCCCC"></path>
                            <path d="M11,11 C8.794,11 7,9.205 7,7 C7,4.794 8.794,3 11,3 C13.206,3 15,4.794 15,7 C15,9.205 13.206,11 11,11 M11,2 C8.238,2 6,4.238 6,7 C6,8.882 7.052,10.501 8.588,11.354 C5.073,12.397 2.5,15.652 2.5,19.5 C2.5,19.776 2.724,20 3,20 C3.276,20 3.5,19.776 3.5,19.5 C3.5,15.364 6.864,12 11,12 C13.762,12 16,9.762 16,7 C16,4.238 13.762,2 11,2" id="Fill-5" fill="#CCCCCC"></path>
                        </g>
                    </g>
                    <text id="我的得乐" font-family="PingFangSC-Regular, PingFang SC" font-size="12" font-weight="normal" fill="#CCCCCC">
                        <tspan x="39" y="41">我的得乐</tspan>
                    </text>
                </g>
                <g id="tab-bar-块/我的得乐/off" transform="translate(250.000000, 1.000000)">
                    <rect id="tab-background" fill="#FFFFFF" x="0" y="0" width="125" height="49"></rect>
                    <g id="icon/tab-bar/个人中心（当前）22px" transform="translate(52.000000, 6.000000)">
                        <g id="Page-1">
                            <polygon id="Fill-1" fill="#FFFFFF" opacity="0" points="0 22 22 22 22 0 0 0"></polygon>
                            <path d="M19,20 C18.724,20 18.5,19.776 18.5,19.5 C18.5,17.09 17.329,14.812 15.368,13.403 C15.145,13.242 15.093,12.93 15.254,12.705 C15.415,12.48 15.727,12.43 15.952,12.591 C18.174,14.187 19.5,16.769 19.5,19.5 C19.5,19.776 19.276,20 19,20" id="Fill-3" fill="#CCCCCC"></path>
                            <path d="M11,11 C8.794,11 7,9.205 7,7 C7,4.794 8.794,3 11,3 C13.206,3 15,4.794 15,7 C15,9.205 13.206,11 11,11 M11,2 C8.238,2 6,4.238 6,7 C6,8.882 7.052,10.501 8.588,11.354 C5.073,12.397 2.5,15.652 2.5,19.5 C2.5,19.776 2.724,20 3,20 C3.276,20 3.5,19.776 3.5,19.5 C3.5,15.364 6.864,12 11,12 C13.762,12 16,9.762 16,7 C16,4.238 13.762,2 11,2" id="Fill-5" fill="#CCCCCC"></path>
                        </g>
                    </g>
                    <g id="icon/tab-bar/个人中心（当前）22px" transform="translate(52.000000, 6.000000)">
                        <g id="Page-1">
                            <polygon id="Fill-1" fill="#FFFFFF" opacity="0" points="0 22 22 22 22 0 0 0"></polygon>
                            <path d="M19,20 C18.724,20 18.5,19.776 18.5,19.5 C18.5,17.09 17.329,14.812 15.368,13.403 C15.145,13.242 15.093,12.93 15.254,12.705 C15.415,12.48 15.727,12.43 15.952,12.591 C18.174,14.187 19.5,16.769 19.5,19.5 C19.5,19.776 19.276,20 19,20" id="Fill-3" fill="#CCCCCC"></path>
                            <path d="M11,11 C8.794,11 7,9.205 7,7 C7,4.794 8.794,3 11,3 C13.206,3 15,4.794 15,7 C15,9.205 13.206,11 11,11 M11,2 C8.238,2 6,4.238 6,7 C6,8.882 7.052,10.501 8.588,11.354 C5.073,12.397 2.5,15.652 2.5,19.5 C2.5,19.776 2.724,20 3,20 C3.276,20 3.5,19.776 3.5,19.5 C3.5,15.364 6.864,12 11,12 C13.762,12 16,9.762 16,7 C16,4.238 13.762,2 11,2" id="Fill-5" fill="#CCCCCC"></path>
                        </g>
                    </g>
                </g>
            </g>
        </g>
    </g>
</svg>