<?xml version="1.0" encoding="UTF-8"?>
<svg  viewBox="0 0 22 22" version="1.1" xmlns="http://www.w3.org/2000/svg" xmlns:xlink="http://www.w3.org/1999/xlink">
    <g id="today-icon" stroke-width="1">
        <path d="M19.1777,8.2373 L11.8837,2.3133 C11.3717,1.8953 10.6277,1.8953 10.1157,2.3133 L2.8227,8.2373 C2.2997,8.6623 1.9997,9.2953 1.9997,9.9733 L1.9997,17.7743 C1.9997,19.0023 2.9877,20.0003 4.1997,20.0003 L9.2997,20.0003 C9.5757,20.0003 9.7997,19.7763 9.7997,19.5003 C9.7997,19.2233 9.5757,19.0003 9.2997,19.0003 L4.1997,19.0003 C3.5377,19.0003 2.9997,18.4503 2.9997,17.7743 L2.9997,9.9733 C2.9997,9.5973 3.1647,9.2473 3.4527,9.0123 L10.7467,3.0893 C10.8937,2.9693 11.1067,2.9693 11.2527,3.0893 L18.5467,9.0123 C18.8347,9.2473 18.9997,9.5973 18.9997,9.9733 L18.9997,17.7743 C18.9997,18.4503 18.4617,19.0003 17.7997,19.0003 L12.6997,19.0003 C12.0377,19.0003 11.4997,18.4503 11.4997,17.7743 L11.4997,16.0483 C11.4997,15.7713 11.2767,15.5483 10.9997,15.5483 C10.7237,15.5483 10.4997,15.7713 10.4997,16.0483 L10.4997,17.7743 C10.4997,19.0023 11.4877,20.0003 12.6997,20.0003 L17.7997,20.0003 C19.0127,20.0003 19.9997,19.0023 19.9997,17.7743 L19.9997,9.9733 C19.9997,9.2953 19.6997,8.6623 19.1777,8.2373" id="Fill-3"></path>
        <path d="M11,14 C11.276,14 11.5,13.776 11.5,13.5 L11.5,12.5 C11.5,12.224 11.276,12 11,12 C10.724,12 10.5,12.224 10.5,12.5 L10.5,13.5 C10.5,13.776 10.724,14 11,14" id="Fill-5"></path>
    </g>
</svg>